HIERARCHY
ROOT Hips
{
	OFFSET 0.00000 0.00000 0.00000
	CHANNELS 6 Xposition Yposition Zposition Yrotation Zrotation Xrotation 
	JOINT Lumbar
	{
		OFFSET 0 0 0
		CHANNELS 3 Zrotation Xrotation Yrotation
		JOINT Neck
		{
			OFFSET 0.00 0.2701 0.00
			CHANNELS 3 Zrotation Xrotation Yrotation
			End Site
			{
				OFFSET 0.00 0.1379 0.00
			}
		}
		JOINT RightShoulder
		{
			OFFSET 0.0119 0.2289 0.1181
			CHANNELS 3 Zrotation Xrotation Yrotation
			JOINT RightElbow
			{
				OFFSET 0.00 -0.1475 0.00
				CHANNELS 2 Zrotation Yrotation
				JOINT RightWrist
				{
					OFFSET 0.00 -0.1605 0.00
					CHANNELS 2 Zrotation Xrotation
					End Site
					{
						OFFSET 0.0040 -0.1068 0.0006
					}
				}
			}
		}
		JOINT LeftShoulder
		{
			OFFSET 0.0119 0.2289 -0.1181
			CHANNELS 3 Zrotation Xrotation Yrotation
			JOINT LeftElbow
			{
				OFFSET 0.00 -0.1475 0.00
				CHANNELS 2 Zrotation Yrotation
				JOINT LeftWrist
				{
					OFFSET 0.00 -0.1605 0.00
					CHANNELS 2 Zrotation Xrotation
					End Site
					{
						OFFSET 0.0040 -0.1068 -0.0006
					}
				}
			}
		}
	}
	JOINT RightHip
	{
		OFFSET 0.0316 -0.0424 0.0458
		CHANNELS 3 Zrotation Xrotation Yrotation
		JOINT RightKnee
		{
			OFFSET 0.00 -0.2438 0.00
			CHANNELS 1 Zrotation
			JOINT RightAnkle
			{
				OFFSET 0.00 -0.2449 0.00
				CHANNELS 3 Zrotation Xrotation Yrotation
				End Site
				{
					OFFSET 0.1237 -0.0542 0.0051
				}
			}
		}
	}
	JOINT LeftHip
	{
		OFFSET 0.0316 -0.0424 -0.0458
		CHANNELS 3 Zrotation Xrotation Yrotation
		JOINT LeftKnee
		{
			OFFSET 0.00 -0.2438 0.00
			CHANNELS 1 Zrotation
			JOINT LeftAnkle
			{
				OFFSET 0.00 -0.2449 0.00
				CHANNELS 3 Zrotation Xrotation Yrotation
				End Site
				{
					OFFSET 0.1237 -0.0542 -0.0051
				}
			}
		}
	}
}
MOTION
Frames: 11
Frame Time: 0.02
-0.00129 0.00038 -0.00108 -179.71465 -31.35178 -2.38431 43.11825 3.74483 -3.86947 -7.88976 -9.26438 -0.27581 -22.32497 -10.55759 -3.60435 38.87857 111.94447 11.41117 4.97921 -28.02888 13.32664 -6.93266 41.80929 -95.11595 12.39867 0.39675 32.10742 -0.3762 -7.00725 -19.70767 -8.45377 -4.61026 -3.17768 34.66737 7.74332 6.37099 -26.52132 -9.18733 4.87573 3.37426
-0.00098 0.00039 -0.00135 -179.79479 -31.57567 -2.4027 43.28216 3.51549 -3.91925 -8.06764 -8.15455 -0.27727 -22.2202 -10.58157 -3.15429 38.59151 111.89138 11.33178 4.7985 -27.70936 13.45675 -6.5906 41.90443 -95.26734 12.54605 0.39366 32.42717 -0.35808 -7.0853 -19.75844 -8.44378 -4.60384 -3.1736 34.99213 7.77482 6.36128 -26.61237 -9.20627 4.88057 3.37823
-0.00068 0.00041 -0.00161 -179.87466 -31.79888 -2.42098 43.44551 3.28665 -3.96901 -8.24496 -7.04739 -0.27873 -22.11562 -10.60552 -2.7053 38.30505 111.8382 11.25246 4.61826 -27.39037 13.58639 -6.24917 41.999 -95.4183 12.69304 0.39059 32.74598 -0.34013 -7.16311 -19.80909 -8.43379 -4.59743 -3.16952 35.31587 7.8062 6.35186 -26.70308 -9.22507 4.88535 3.38216
-0.00037 0.00042 -0.00188 -179.95456 -32.02209 -2.43931 43.60891 3.05798 -4.01865 -8.42229 -5.94084 -0.28019 -22.01114 -10.62942 -2.25659 38.01882 111.78545 11.17331 4.43812 -27.07176 13.7161 -5.90808 42.0938 -95.56923 12.83998 0.38752 33.06475 -0.32208 -7.24091 -19.85971 -8.42382 -4.59104 -3.16545 35.63962 7.83761 6.34224 -26.79384 -9.24393 4.89017 3.38611
-6e-05 0.00043 -0.00214 -180.03473 -32.24598 -2.45778 43.7729 2.8289 -4.06829 -8.60017 -4.83195 -0.28164 -21.90652 -10.65337 -1.80688 37.73212 111.73229 11.09406 4.25744 -26.7528 13.84628 -5.56658 42.18931 -95.72056 12.9873 0.38442 33.38445 -0.30382 -7.31899 -19.91046 -8.41385 -4.58465 -3.16138 35.9644 7.86912 6.33221 -26.88495 -9.26294 4.89505 3.39011
0.00024 0.00045 -0.00241 -180.11393 -32.46773 -2.47566 43.93489 2.60059 -4.1183 -8.77632 -3.72853 -0.2831 -21.80205 -10.67735 -1.35943 37.4462 111.67875 11.01457 4.07807 -26.43378 13.97475 -5.22534 42.2819 -95.87075 13.13359 0.38141 33.70134 -0.28656 -7.39625 -19.96091 -8.40384 -4.5782 -3.15728 36.28595 7.90021 6.32403 -26.97481 -9.28129 4.89962 3.39389
0.00055 0.00046 -0.00268 -180.19505 -32.69354 -2.49471 44.10072 2.37095 -4.16746 -8.95574 -2.61525 -0.28455 -21.69738 -10.70114 -0.90806 37.15896 111.6276 10.93587 3.89652 -26.11521 14.10658 -4.88384 42.38021 -96.02306 13.28176 0.37823 34.02352 -0.26725 -7.47495 -20.01188 -8.39391 -4.57188 -3.15324 36.6136 7.93217 6.31223 -27.06709 -9.30096 4.90482 3.39809
0.00085 0.00047 -0.00294 -180.2743 -32.91562 -2.51269 44.26301 2.14261 -4.21748 -9.13216 -1.51117 -0.28601 -21.59293 -10.7253 -0.46006 36.87308 111.57137 10.85603 3.7165 -25.79626 14.23522 -4.54276 42.47333 -96.17341 13.42825 0.37521 34.34086 -0.24992 -7.55255 -20.06238 -8.3839 -4.56542 -3.14914 36.9357 7.96323 6.30361 -27.15716 -9.31942 4.90945 3.40192
0.00115 0.00049 -0.00319 -180.35171 -33.13321 -2.5293 44.42105 1.91544 -4.26831 -9.30495 -0.4173 -0.28747 -21.48855 -10.74916 -0.01687 36.5881 111.52029 10.77636 3.54018 -25.47649 14.36035 -4.20125 42.55974 -96.32146 13.57256 0.37237 34.65228 -0.23466 -7.62793 -20.11229 -8.37383 -4.55885 -3.14501 37.25087 7.99358 6.29955 -27.24446 -9.33637 4.91333 3.40527
0.00147 0.00049 -0.00351 -180.44104 -33.37681 -2.55361 44.60377 1.68025 -4.31376 -9.49875 0.73848 -0.28891 -21.38312 -10.77247 0.45193 36.29563 111.47372 10.70043 3.34808 -25.16035 14.50686 -3.85939 42.68366 -96.48306 13.72904 0.36844 34.99776 -0.20645 -7.71345 -20.16558 -8.36419 -4.5531 -3.14117 37.60548 8.02922 6.27128 -27.34749 -9.36192 4.92135 3.41129
0.00176 0.00052 -0.00368 -180.50435 -33.5654 -2.56178 44.73426 1.46285 -4.371 -9.64811 1.76143 -0.29039 -21.28035 -10.79841 0.86794 36.0205 111.39585 10.61361 3.18579 -24.83731 14.60748 -3.52012 42.72919 -96.61582 13.86005 0.36684 35.27136 -0.20624 -7.77926 -20.21176 -8.35363 -4.54552 -3.13666 37.87711 8.05292 6.29278 -27.41745 -9.36937 4.92076 3.41172
